{"title":"An.American.Affair.2009.DVDRiP.XViD.Optional.MULTISUB.-Zen_Bud","uid":5841076,"size":1477450382,"categoryP":"video","categoryS":"movies","magnet":"?xt=urn:btih:27ff1014d64cf6dc329e5f6c0bb0edb7ce121e3c&amp;dn=An.American.Affair.2009.DVDRiP.XViD.Optional.MULTISUB.-Zen_Bud&amp;tr=udp%3A%2F%2Ftracker.openbittorrent.com%3A80&amp;tr=udp%3A%2F%2Fopen.demonii.com%3A1337&amp;tr=udp%3A%2F%2Ftracker.coppersurfer.tk%3A6969&amp;tr=udp%3A%2F%2Fexodus.desync.com%3A6969","seeders":0,"leechers":1,"uploader":"Zen_Bud","files":-1,"time":1284966516,"description":"Complete name                    : An.American.Affair.2009.avi\nFormat                           : AVI\nFile size                        : 1.37 GiB\nDuration                         : 1h 28mn\nOverall bit rate                 : 2 204 Kbps\n\nVideo\n\nFormat                           : MPEG-4 Visual\nCodec ID/Hint                    : XviD\nDuration                         : 1h 28mn\nBit rate                         : 2 031 Kbps\nWidth                            : 718 pixels\nHeight                           : 552 pixels\nDisplay aspect ratio             : 1.850\nStream size                      : 1.26 GiB (92%)\nWriting library                  : XviD 1.1.2 (UTC 2006-11-01)\n\nAudio\n\nFormat                           : MPEG Audio\nCodec ID/Hint                    : MP3\nDuration                         : 1h 28mn\nBit rate                         : 160 Kbps\nChannel(s)                       : 2 channels\nSampling rate                    : 48.0 KHz\nStream size                      : 102 MiB (7%)\n\n\nText #1\nLanguage                         : Swedish\n\nText #2\nLanguage                         : Norwegian\n\nText #3\nLanguage                         : Danish","torrent":{"xt":"urn:btih:27ff1014d64cf6dc329e5f6c0bb0edb7ce121e3c","amp;dn":"An.American.Affair.2009.DVDRiP.XViD.Optional.MULTISUB.-Zen_Bud","amp;tr":["udp%3A%2F%2Ftracker.openbittorrent.com%3A80","udp%3A%2F%2Fopen.demonii.com%3A1337","udp%3A%2F%2Ftracker.coppersurfer.tk%3A6969","udp%3A%2F%2Fexodus.desync.com%3A6969"],"infoHash":"27ff1014d64cf6dc329e5f6c0bb0edb7ce121e3c","infoHashBuffer":{"type":"Buffer","data":[39,255,16,20,214,76,246,220,50,158,95,108,11,176,237,183,206,18,30,60]},"announce":[],"urlList":[]}}